# xmcd
#
# Track frame offsets:
#	150
#	25725
#	45047
#	65645
#	100672
#	113807
#	133387
#	173290
#	194885
#	217450
#
# Disc length: 3101 seconds
#
# Revision: 15
# Processed by: cddbd v1.5.2PL0 Copyright (c) Steve Scherf et al.
# Submitted via: EZCDAudioConverter 8.1.0.1
#
DISCID=8f0c1b0a
DTITLE=Bob Dylan - Blood On The Tracks 1974 (The Vinyl Classics  2003) Spiegel
DTITLE=Edition
DYEAR=2005
DGENRE=Blues
TTITLE0=Tangled Up In Blue
TTITLE1=Simple Twist Of Fate
TTITLE2=You're A Big Girl Now
TTITLE3=Idiot Wind
TTITLE4=You're Gonna Make Me Lonesome When You Go
TTITLE5=Meet Me In The Morning
TTITLE6=Lily, Rosemary And The Jack Of Hearts
TTITLE7=If You See Her, Say Hello
TTITLE8=Shelter From The Storm
TTITLE9=Buckets Of Rain
EXTD=
EXTT0=
EXTT1=
EXTT2=
EXTT3=
EXTT4=
EXTT5=
EXTT6=
EXTT7=
EXTT8=
EXTT9=
PLAYORDER=
